# xmcd
#
# Track frame offsets:
#	150
#	11947
#	24340
#	36880
#	47865
#	59700
#	70127
#	82690
#	98910
#	112715
#	122540
#	131452
#
# Disc length: 1940 seconds
#
# Revision: 1
# Processed by: cddbd v1.5.1PL0 Copyright (c) Steve Scherf et al.
# Submitted via: CDex 1.50Beta5
#
DISCID=9507920c
DTITLE=京本政樹 - CDツイン ヒーロー再び!ウルトラマン/仮面ライダー Disc 1
DYEAR=1992
DGENRE=
TTITLE0=京本政樹/ぼくらのグレート
TTITLE1=京本政樹/地球は君を待っていた
TTITLE2=真夏竜/ウルトラマンレオ
TTITLE3=ヒデ夕樹/戦え!ウルトラマンレオ
TTITLE4=武村太郎/ウルトラマンタロウ
TTITLE5=武村太郎/ウルトラ六兄弟
TTITLE6=ハニーナイツ/ウルトラマンA
TTITLE7=ハニーナイツ/タックのうた
TTITLE8=団次郎/帰ってきたウルトラマン
TTITLE9=みすず児童合唱団/ウルトラセブンのうた
TTITLE10=みすず児童合唱団/ウルトラマンのうた
TTITLE11=水木一郎/ウルトラマン物語
EXTD=
EXTT0=
EXTT1=
EXTT2=
EXTT3=
EXTT4=
EXTT5=
EXTT6=
EXTT7=
EXTT8=
EXTT9=
EXTT10=
EXTT11=
PLAYORDER=
